# Blender 3.6.1
# www.blender.org
mtllib yrig.mtl
g Cube_Mesh
v -0.200000 -0.200000 -2.200000
v -0.200000 0.200000 -2.200000
v -0.200000 -0.387938 -2.431596
v -0.200000 -0.012061 -2.568404
v 0.200000 -0.200000 -2.200000
v 0.200000 0.200000 -2.200000
v 0.200000 -0.387938 -2.431596
v 0.200000 -0.012061 -2.568404
v -0.000000 -0.437460 -1.879188
v 0.000000 0.059240 -1.552330
v -0.000000 -0.437460 -1.879188
v 0.000000 0.059240 -1.552330
v -0.140000 -0.640000 -3.000000
v -0.140000 -0.360000 -3.000000
v 0.140000 -0.640000 -3.000000
v 0.140000 -0.360000 -3.000000
v -0.266000 -0.266000 -3.800000
v -0.266000 0.266000 -3.800000
v 0.266000 -0.266000 -3.800000
v 0.266000 0.266000 -3.800000
v 0.000000 -0.266000 -4.200000
v 0.000000 0.266000 -4.200000
v 0.000000 -0.266000 -4.200000
v 0.000000 0.266000 -4.200000
v -0.200000 -0.200000 -2.200000
v -0.200000 0.200000 -2.200000
v 0.200000 0.200000 -2.200000
v 0.200000 -0.200000 -2.200000
v -0.000000 -0.437460 -1.879188
v 0.000000 0.059240 -1.552330
v 0.000000 0.059240 -1.552330
v -0.000000 -0.437460 -1.879188
v 1.129310 -0.692267 -1.245348
v 1.129310 -0.972120 -1.245348
v 0.792702 -0.790747 -0.911279
v 0.900259 -1.138255 -1.113087
v -1.129310 -0.972120 -1.245348
v -1.129310 -0.692267 -1.245348
v -0.900259 -1.138255 -1.113087
v -0.792702 -0.790747 -0.911279
v 0.710380 0.266000 -3.894063
v 0.710379 -0.266000 -3.894063
v 0.854584 0.266000 -4.243672
v 0.854584 -0.266000 -4.243672
v -0.710380 0.266000 -3.894063
v -0.710379 -0.266000 -3.894063
v -0.854584 0.266000 -4.243672
v -0.854584 -0.266000 -4.243672
v 1.176697 -0.731532 -0.823375
v 1.176697 -0.947955 -0.816929
v 0.802643 -0.810661 -0.822315
v 0.977090 -1.088701 -0.812796
v -1.176697 -0.947955 -0.816929
v -1.176697 -0.731532 -0.823375
v -0.977090 -1.088701 -0.812796
v -0.802643 -0.810661 -0.822315
v 1.152138 -0.438830 -0.174033
v 1.152138 -0.553504 -0.055847
v 0.867648 -0.481445 -0.131530
v 1.000326 -0.628110 0.020981
v -1.152138 -0.553504 -0.055847
v -1.152138 -0.438830 -0.174033
v -1.000325 -0.628110 0.020981
v -0.867648 -0.481445 -0.131530
v 1.181617 -0.384603 -0.164986
v 1.181617 -0.374882 0.027444
v 0.848756 -0.382203 -0.094606
v 1.003992 -0.368613 0.152587
v -1.181617 -0.374883 0.027444
v -1.181617 -0.384603 -0.164986
v -1.003992 -0.368613 0.152587
v -0.848756 -0.382203 -0.094606
v 1.181617 0.409663 -0.153329
v 1.181617 0.419383 0.039101
v 0.848755 0.412063 -0.082949
v 1.003992 0.425653 0.164244
v -1.181617 0.419383 0.039101
v -1.181617 0.409663 -0.153329
v -1.003992 0.425653 0.164244
v -0.848755 0.412062 -0.082949
v 1.008609 0.756853 -0.035449
v -1.008609 0.756853 -0.035449
v 0.710380 0.266000 -3.894063
v 0.710379 -0.266000 -3.894063
v 0.854584 0.266000 -4.243672
v 0.854584 -0.266000 -4.243672
v -0.710380 0.266000 -3.894063
v -0.710379 -0.266000 -3.894063
v -0.854584 0.266000 -4.243672
v -0.854584 -0.266000 -4.243672
v 0.776867 0.333314 -3.841200
v 0.776867 -0.333313 -3.841200
v 1.241961 0.333314 -4.160376
v 1.241961 -0.333313 -4.160376
v -0.776867 0.333314 -3.841200
v -0.776867 -0.333313 -3.841200
v -1.241961 0.333314 -4.160376
v -1.241961 -0.333313 -4.160376
v 0.800169 0.368973 -3.773387
v 0.800169 -0.368973 -3.773387
v 1.324560 0.368973 -3.759196
v 1.324560 -0.368973 -3.759196
v -0.800169 0.368973 -3.773387
v -0.800169 -0.368973 -3.773387
v -1.324560 0.368973 -3.759196
v -1.324560 -0.368973 -3.759196
v 0.885807 -0.731765 -3.120374
v 0.885807 -0.990672 -3.237142
v 1.087635 -0.734010 -3.115395
v 1.087635 -0.992918 -3.232163
v -0.885807 -0.731765 -3.120374
v -0.885807 -0.990672 -3.237142
v -1.087635 -0.734010 -3.115395
v -1.087635 -0.992918 -3.232163
v 0.885807 -0.776556 -3.050865
v 0.885807 -1.204146 -2.973393
v 1.087635 -0.776376 -3.045407
v 1.087634 -1.203965 -2.967934
v -0.885807 -0.776556 -3.050865
v -0.885807 -1.204146 -2.973393
v -1.087635 -0.776376 -3.045407
v -1.087635 -1.203965 -2.967934
v 0.885807 -0.706130 -2.995914
v 0.885807 -0.807692 -2.730672
v 1.087634 -0.701029 -2.993960
v 1.087634 -0.802592 -2.728719
v -0.885807 -0.706130 -2.995914
v -0.885807 -0.807692 -2.730672
v -1.087635 -0.701029 -2.993960
v -1.087635 -0.802591 -2.728719
v 0.885807 -0.053107 -2.652214
v 0.885807 -0.045375 -2.368298
v 1.087634 -0.047647 -2.652362
v 1.087634 -0.039916 -2.368446
v -0.885807 -0.053107 -2.652214
v -0.885807 -0.045375 -2.368298
v -1.087635 -0.047647 -2.652362
v -1.087635 -0.039916 -2.368447
v 0.885807 0.567678 -2.669119
v 0.885807 0.575409 -2.385203
v 1.087635 0.573137 -2.669267
v 1.087635 0.580869 -2.385352
v -0.885807 0.567678 -2.669119
v -0.885807 0.575409 -2.385203
v -1.087635 0.573137 -2.669267
v -1.087635 0.580869 -2.385351
vn -1.0000 -0.0000 -0.0000
vn -0.0000 0.7785 -0.6276
vn 1.0000 -0.0000 -0.0000
vn -0.0000 1.0000 -0.0000
vn -0.0000 -0.7765 0.6301
vn -0.0000 0.8667 -0.4989
vn 0.9878 -0.0000 0.1556
vn -0.9945 -0.0000 -0.1050
vn 0.9935 -0.0389 -0.1068
vn -0.0000 -0.9141 0.4054
vn -0.0000 -0.9059 -0.4235
vn -0.0000 0.7875 0.6163
vn -0.9878 -0.0000 0.1556
vn -0.2071 -0.0000 0.9783
vn -0.0510 -0.0000 -0.9987
vn 0.0341 -0.7930 -0.6082
vn 0.0806 -0.6865 -0.7227
vn 0.5760 -0.8173 -0.0125
vn 0.4622 0.8262 0.3223
vn -0.7845 -0.3409 0.5180
vn 0.7166 -0.0000 -0.6975
vn -0.9938 -0.0000 -0.1116
vn 0.7540 -0.4884 0.4392
vn -0.7166 -0.0000 -0.6975
vn -0.3439 0.7484 0.5671
vn 0.2071 -0.0000 0.9783
vn -0.0000 -1.0000 -0.0000
vn 0.0510 -0.0000 -0.9987
vn 0.8130 -0.4998 0.2988
vn 0.1901 0.8931 -0.4077
vn 0.2005 0.9510 0.2353
vn 0.9940 -0.0033 -0.1098
vn 0.8538 -0.4326 0.2898
vn -0.1762 0.9781 0.1108
vn -0.8464 -0.5319 -0.0245
vn -0.5801 -0.8143 -0.0182
vn 0.5597 -0.3811 0.7359
vn -0.8766 -0.4806 0.0243
vn -0.1947 0.8914 -0.4092
vn -0.8409 -0.4536 0.2953
vn -0.5585 -0.7289 0.3958
vn -0.9993 0.0266 0.0258
vn 0.5343 -0.7461 0.3973
vn 0.9995 0.0009 0.0318
vn -0.5756 -0.0120 0.8176
vn 0.9877 -0.1122 -0.1089
vn 0.1859 0.3114 -0.9319
vn 0.8126 -0.2544 0.5243
vn -0.1976 0.2649 -0.9438
vn -0.8454 -0.3200 0.4277
vn -0.5094 -0.4313 0.7446
vn -0.2001 0.2242 -0.9538
vn 0.8130 0.3089 0.4936
vn 0.5756 -0.0120 0.8176
vn 0.2067 0.0144 -0.9783
vn 0.8466 -0.0078 0.5321
vn -0.2067 0.0144 -0.9783
vn -0.8466 -0.0078 0.5321
vn -0.8130 0.3089 0.4936
vn -0.5294 0.4326 0.7298
vn -0.8917 0.4521 -0.0228
vn 0.5294 0.4326 0.7298
vn 0.8917 0.4521 -0.0228
vn 0.2001 0.2242 -0.9538
vn -0.2102 -0.0000 -0.9777
vn 0.1288 -0.9737 -0.1877
vn -0.9457 -0.0000 0.3250
vn -0.0532 0.9956 -0.0775
vn -0.5882 -0.7715 -0.2426
vn 0.2102 -0.0000 -0.9777
vn 0.5882 0.7715 -0.2426
vn 0.6223 -0.0000 0.7827
vn -0.1288 0.9737 -0.1877
vn -0.6224 -0.0000 0.7827
vn 0.9934 -0.0470 0.1042
vn 0.0156 0.5093 0.8605
vn 0.0532 -0.9956 -0.0775
vn -0.9795 -0.0000 -0.2017
vn 0.0127 -0.8832 -0.4688
vn 0.9795 -0.0000 -0.2017
vn -0.0127 0.8832 -0.4688
vn 0.9457 -0.0000 0.3250
vn -0.0148 0.8554 0.5178
vn -0.0233 0.5077 0.8612
vn -0.9915 -0.0000 0.1300
vn -0.0206 -0.6497 -0.7599
vn -0.9385 -0.0000 0.3454
vn 0.0114 -0.6522 -0.7580
vn 0.9520 -0.1258 0.2790
vn -0.0208 0.6150 -0.7882
vn -0.0176 -0.7812 -0.6240
vn 0.0069 -0.7773 -0.6291
vn 0.0040 0.8406 0.5417
vn 0.0021 -0.4293 0.9031
vn -0.0063 0.5639 -0.8258
vn -0.0046 -0.5120 0.8590
vn -0.0226 -0.5220 0.8526
vn -0.0000 0.0272 0.9996
vn 0.0032 0.4657 -0.8849
vn -0.0132 0.4633 -0.8861
vn -0.0122 -0.4271 0.9041
vn -0.0271 0.9993 -0.0272
vn 0.0271 0.9993 -0.0272
vn -0.0000 -0.0272 -0.9996
vn -0.0000 -0.8038 -0.5949
vn -0.0000 0.9772 0.2124
vn -0.9935 -0.0389 -0.1068
vn 0.9945 -0.0000 -0.1050
vn -0.0806 -0.6865 -0.7227
vn -0.0341 -0.7930 -0.6082
vn 0.5801 -0.8143 -0.0182
vn 0.3439 0.7484 0.5671
vn -0.7540 -0.4884 0.4392
vn -0.9940 -0.0033 -0.1098
vn 0.7845 -0.3409 0.5180
vn -0.4622 0.8262 0.3223
vn 0.8409 -0.4536 0.2953
vn 0.1947 0.8914 -0.4092
vn 0.1762 0.9781 0.1108
vn 0.9938 -0.0000 -0.1116
vn 0.8464 -0.5319 -0.0245
vn -0.2005 0.9510 0.2353
vn -0.8538 -0.4326 0.2898
vn -0.5760 -0.8173 -0.0125
vn 0.5094 -0.4313 0.7446
vn -0.9877 -0.1122 -0.1089
vn -0.1901 0.8931 -0.4077
vn -0.8130 -0.4998 0.2988
vn -0.5343 -0.7461 0.3973
vn -0.9995 0.0009 0.0318
vn 0.5585 -0.7289 0.3958
vn 0.9993 0.0266 0.0258
vn 0.8766 -0.4806 0.0243
vn 0.1976 0.2649 -0.9438
vn 0.8454 -0.3200 0.4277
vn -0.1859 0.3114 -0.9319
vn -0.8126 -0.2544 0.5243
vn -0.5597 -0.3811 0.7359
vn 0.5882 -0.7715 -0.2426
vn 0.0127 0.8832 -0.4688
vn -0.1288 -0.9737 -0.1877
vn 0.1288 0.9737 -0.1877
vn 0.6224 -0.0000 0.7827
vn -0.5882 0.7715 -0.2426
vn -0.6223 -0.0000 0.7827
vn 0.9915 -0.0000 0.1300
vn 0.0233 0.5077 0.8612
vn -0.0127 -0.8832 -0.4688
vn -0.0532 -0.9956 -0.0775
vn 0.0532 0.9956 -0.0775
vn -0.0040 0.8406 0.5417
vn -0.0156 0.5093 0.8605
vn -0.9934 -0.0470 0.1042
vn -0.0114 -0.6522 -0.7580
vn -0.9520 -0.1258 0.2790
vn 0.0206 -0.6497 -0.7599
vn 0.9385 -0.0000 0.3454
vn 0.0063 0.5639 -0.8258
vn -0.0069 -0.7773 -0.6291
vn 0.0176 -0.7812 -0.6240
vn 0.0148 0.8554 0.5178
vn 0.0122 -0.4271 0.9041
vn 0.0208 0.6150 -0.7882
vn 0.0226 -0.5220 0.8526
vn 0.0046 -0.5120 0.8590
vn 0.0132 0.4633 -0.8861
vn -0.0032 0.4657 -0.8849
vn -0.0021 -0.4293 0.9032
vt 0.375000 0.000000
vt 0.625000 0.250000
vt 0.375000 0.250000
vt 0.625000 0.500000
vt 0.875000 0.500000
vt 0.375000 0.750000
vt 0.375000 0.500000
vt 0.625000 0.750000
vt 0.125000 0.750000
vt 0.125000 0.500000
vt 0.625000 1.000000
vt 0.375000 1.000000
vt 0.875000 0.750000
vt 0.625000 0.000000
s 0
g off
usemtl RED
f 1/1/1 4/2/1 3/3/1
f 8/4/2 14/5/2 4/5/2
f 8/4/3 5/6/3 7/7/3
f 12/8/4 32/6/4 31/8/4
f 7/7/5 1/9/5 3/10/5
f 4/5/6 6/8/6 8/4/6
f 11/6/4 10/11/4 9/12/4
f 1/9/4 11/6/4 9/9/4
f 6/8/4 10/13/4 12/8/4
f 10/13/4 26/13/4 30/13/4
f 16/4/7 19/7/7 20/4/7
f 3/3/8 14/2/8 13/3/8
f 7/7/9 16/4/9 8/4/9
f 3/10/10 15/7/10 7/7/10
f 18/5/4 24/4/4 22/5/4
f 13/10/11 19/7/11 15/7/11
f 16/4/12 18/5/12 14/5/12
f 14/2/13 17/3/13 13/3/13
f 21/3/4 24/4/4 23/7/4
f 18/2/14 46/3/14 17/3/14
f 23/7/15 43/4/15 44/7/15
f 19/7/4 21/10/4 23/7/4
f 29/9/16 37/9/16 25/9/16
f 32/6/17 34/6/17 36/6/17
f 5/6/4 27/8/4 28/6/4
f 11/6/4 28/6/4 32/6/4
f 1/9/4 29/9/4 25/9/4
f 2/14/4 25/1/4 26/14/4
f 9/12/4 30/11/4 29/12/4
f 6/8/4 31/8/4 27/8/4
f 36/6/18 50/6/18 52/6/18
f 31/8/19 33/8/19 27/8/19
f 32/6/20 35/8/20 31/8/20
f 28/6/21 33/8/21 34/6/21
f 37/1/22 54/14/22 38/14/22
f 29/12/23 40/11/23 39/12/23
f 25/1/24 38/14/24 26/14/24
f 30/13/25 38/13/25 40/13/25
f 44/7/4 85/4/4 86/7/4
f 20/4/26 42/7/26 41/4/26
f 24/4/4 41/4/4 43/4/4
f 23/7/27 42/7/27 19/7/27
f 42/7/4 86/7/4 84/7/4
f 21/10/27 46/10/27 48/10/27
f 21/3/28 47/2/28 22/2/28
f 22/5/4 45/5/4 18/5/4
f 56/11/29 63/12/29 55/12/29
f 54/13/30 64/13/30 56/13/30
f 40/13/31 54/13/31 56/13/31
f 34/6/32 49/8/32 50/6/32
f 40/11/33 55/12/33 39/12/33
f 35/8/34 49/8/34 33/8/34
f 35/8/35 52/6/35 51/8/35
f 39/9/36 53/9/36 37/9/36
f 58/6/37 68/6/37 60/6/37
f 62/14/38 69/1/38 70/14/38
f 49/8/39 59/8/39 57/8/39
f 51/8/40 60/6/40 59/8/40
f 53/9/41 63/9/41 61/9/41
f 54/14/42 61/1/42 62/14/42
f 50/6/43 60/6/43 52/6/43
f 49/8/44 58/6/44 50/6/44
f 69/1/1 78/14/1 70/14/1
f 71/9/45 77/9/45 69/9/45
f 57/8/46 66/6/46 58/6/46
f 62/13/47 72/13/47 64/13/47
f 63/12/48 72/11/48 71/12/48
f 57/8/49 67/8/49 65/8/49
f 60/6/50 67/8/50 59/8/50
f 61/9/51 71/9/51 69/9/51
f 73/8/52 75/8/52 81/8/52
f 79/12/53 80/11/53 82/12/53
f 68/6/54 74/6/54 76/6/54
f 66/6/3 73/8/3 74/6/3
f 72/13/55 78/13/55 80/13/55
f 71/12/56 80/11/56 79/12/56
f 67/8/57 73/8/57 65/8/57
f 68/6/58 75/8/58 67/8/58
f 75/8/59 76/6/59 81/8/59
f 77/9/60 79/9/60 82/9/60
f 78/14/61 77/1/61 82/14/61
f 76/6/62 74/6/62 81/6/62
f 74/6/63 73/8/63 81/6/63
f 80/13/64 78/13/64 82/13/64
f 90/3/65 97/2/65 89/2/65
f 90/10/66 96/10/66 98/10/66
f 45/5/4 89/5/4 87/5/4
f 46/3/4 87/2/4 88/3/4
f 43/4/4 83/4/4 85/4/4
f 48/10/4 88/10/4 90/10/4
f 41/4/4 84/7/4 83/4/4
f 47/2/4 90/3/4 89/2/4
f 92/7/67 99/4/67 91/4/67
f 91/4/68 101/4/68 93/4/68
f 86/7/69 92/7/69 84/7/69
f 85/4/70 94/7/70 86/7/70
f 89/5/71 95/5/71 87/5/71
f 87/2/72 96/3/72 88/3/72
f 85/4/73 91/4/73 93/4/73
f 83/4/74 92/7/74 91/4/74
f 104/3/75 111/2/75 112/3/75
f 103/5/76 113/5/76 111/5/76
f 96/10/77 106/10/77 98/10/77
f 98/3/78 105/2/78 97/2/78
f 92/7/79 102/7/79 100/7/79
f 94/7/80 101/4/80 102/7/80
f 95/5/81 105/5/81 103/5/81
f 96/3/82 103/2/82 104/3/82
f 108/7/1 115/4/1 107/4/1
f 109/4/83 115/4/83 117/4/83
f 99/4/84 109/4/84 101/4/84
f 100/7/85 107/4/85 99/4/85
f 104/10/86 114/10/86 106/10/86
f 106/3/87 113/2/87 105/2/87
f 100/7/88 110/7/88 108/7/88
f 102/7/89 109/4/89 110/7/89
f 119/2/3 128/3/3 120/3/3
f 121/5/90 127/5/90 119/5/90
f 114/10/91 120/10/91 122/10/91
f 114/3/1 121/2/1 113/2/1
f 110/7/92 116/7/92 108/7/92
f 110/7/3 117/4/3 118/7/3
f 113/5/93 119/5/93 111/5/93
f 112/3/3 119/2/3 120/3/3
f 126/7/3 133/4/3 134/7/3
f 126/7/94 132/7/94 124/7/94
f 117/4/95 123/4/95 125/4/95
f 115/4/1 124/7/1 123/4/1
f 122/10/96 128/10/96 130/10/96
f 121/2/1 130/3/1 129/2/1
f 118/7/97 124/7/97 116/7/97
f 117/4/3 126/7/3 118/7/3
f 138/3/1 145/2/1 137/2/1
f 138/10/98 144/10/98 146/10/98
f 129/5/99 135/5/99 127/5/99
f 128/3/3 135/2/3 136/3/3
f 125/4/100 131/4/100 133/4/100
f 124/7/1 131/4/1 123/4/1
f 130/10/101 136/10/101 138/10/101
f 130/3/1 137/2/1 129/2/1
f 140/7/102 141/4/102 139/4/102
f 144/3/103 145/2/103 146/3/103
f 134/7/98 140/7/98 132/7/98
f 133/4/3 142/7/3 134/7/3
f 137/5/104 143/5/104 135/5/104
f 135/2/3 144/3/3 136/3/3
f 133/4/104 139/4/104 141/4/104
f 131/4/1 140/7/1 139/4/1
f 1/1/1 2/14/1 4/2/1
f 8/4/2 16/4/2 14/5/2
f 8/4/3 6/8/3 5/6/3
f 12/8/4 11/6/4 32/6/4
f 7/7/5 5/6/5 1/9/5
f 4/5/6 2/13/6 6/8/6
f 11/6/4 12/8/4 10/11/4
f 1/9/105 5/6/105 11/6/105
f 6/8/106 2/13/106 10/13/106
f 10/13/4 2/13/4 26/13/4
f 16/4/7 15/7/7 19/7/7
f 3/3/107 4/2/107 14/2/107
f 7/7/108 15/7/108 16/4/108
f 3/10/10 13/10/10 15/7/10
f 18/5/4 20/4/4 24/4/4
f 13/10/11 17/10/11 19/7/11
f 16/4/12 20/4/12 18/5/12
f 14/2/13 18/2/13 17/3/13
f 21/3/4 22/2/4 24/4/4
f 18/2/14 45/2/14 46/3/14
f 23/7/15 24/4/15 43/4/15
f 19/7/27 17/10/27 21/10/27
f 29/9/109 39/9/109 37/9/109
f 32/6/110 28/6/110 34/6/110
f 5/6/4 6/8/4 27/8/4
f 11/6/4 5/6/4 28/6/4
f 1/9/4 9/9/4 29/9/4
f 2/14/4 1/1/4 25/1/4
f 9/12/4 10/11/4 30/11/4
f 6/8/4 12/8/4 31/8/4
f 36/6/111 34/6/111 50/6/111
f 31/8/112 35/8/112 33/8/112
f 32/6/113 36/6/113 35/8/113
f 28/6/21 27/8/21 33/8/21
f 37/1/114 53/1/114 54/14/114
f 29/12/115 30/11/115 40/11/115
f 25/1/24 37/1/24 38/14/24
f 30/13/116 26/13/116 38/13/116
f 44/7/4 43/4/4 85/4/4
f 20/4/26 19/7/26 42/7/26
f 24/4/4 20/4/4 41/4/4
f 23/7/27 44/7/27 42/7/27
f 42/7/4 44/7/4 86/7/4
f 21/10/27 17/10/27 46/10/27
f 21/3/28 48/3/28 47/2/28
f 22/5/4 47/5/4 45/5/4
f 56/11/117 64/11/117 63/12/117
f 54/13/118 62/13/118 64/13/118
f 40/13/119 38/13/119 54/13/119
f 34/6/120 33/8/120 49/8/120
f 40/11/121 56/11/121 55/12/121
f 35/8/122 51/8/122 49/8/122
f 35/8/123 36/6/123 52/6/123
f 39/9/124 55/9/124 53/9/124
f 58/6/125 66/6/125 68/6/125
f 62/14/126 61/1/126 69/1/126
f 49/8/127 51/8/127 59/8/127
f 51/8/128 52/6/128 60/6/128
f 53/9/129 55/9/129 63/9/129
f 54/14/130 53/1/130 61/1/130
f 50/6/131 58/6/131 60/6/131
f 49/8/132 57/8/132 58/6/132
f 69/1/1 77/1/1 78/14/1
f 71/9/45 79/9/45 77/9/45
f 57/8/133 65/8/133 66/6/133
f 62/13/134 70/13/134 72/13/134
f 63/12/135 64/11/135 72/11/135
f 57/8/136 59/8/136 67/8/136
f 60/6/137 68/6/137 67/8/137
f 61/9/138 63/9/138 71/9/138
f 68/6/54 66/6/54 74/6/54
f 66/6/3 65/8/3 73/8/3
f 72/13/55 70/13/55 78/13/55
f 71/12/56 72/11/56 80/11/56
f 67/8/57 75/8/57 73/8/57
f 68/6/58 76/6/58 75/8/58
f 90/3/65 98/3/65 97/2/65
f 90/10/139 88/10/139 96/10/139
f 45/5/4 47/5/4 89/5/4
f 46/3/4 45/2/4 87/2/4
f 43/4/4 41/4/4 83/4/4
f 48/10/4 46/10/4 88/10/4
f 41/4/4 42/7/4 84/7/4
f 47/2/4 48/3/4 90/3/4
f 92/7/67 100/7/67 99/4/67
f 91/4/140 99/4/140 101/4/140
f 86/7/141 94/7/141 92/7/141
f 85/4/70 93/4/70 94/7/70
f 89/5/142 97/5/142 95/5/142
f 87/2/143 95/2/143 96/3/143
f 85/4/144 83/4/144 91/4/144
f 83/4/145 84/7/145 92/7/145
f 104/3/146 103/2/146 111/2/146
f 103/5/147 105/5/147 113/5/147
f 96/10/148 104/10/148 106/10/148
f 98/3/78 106/3/78 105/2/78
f 92/7/149 94/7/149 102/7/149
f 94/7/80 93/4/80 101/4/80
f 95/5/150 97/5/150 105/5/150
f 96/3/82 95/2/82 103/2/82
f 108/7/1 116/7/1 115/4/1
f 109/4/151 107/4/151 115/4/151
f 99/4/152 107/4/152 109/4/152
f 100/7/153 108/7/153 107/4/153
f 104/10/154 112/10/154 114/10/154
f 106/3/155 114/3/155 113/2/155
f 100/7/156 102/7/156 110/7/156
f 102/7/157 101/4/157 109/4/157
f 119/2/3 127/2/3 128/3/3
f 121/5/158 129/5/158 127/5/158
f 114/10/159 112/10/159 120/10/159
f 114/3/1 122/3/1 121/2/1
f 110/7/160 118/7/160 116/7/160
f 110/7/3 109/4/3 117/4/3
f 113/5/161 121/5/161 119/5/161
f 112/3/3 111/2/3 119/2/3
f 126/7/3 125/4/3 133/4/3
f 126/7/162 134/7/162 132/7/162
f 117/4/163 115/4/163 123/4/163
f 115/4/1 116/7/1 124/7/1
f 122/10/164 120/10/164 128/10/164
f 121/2/1 122/3/1 130/3/1
f 118/7/165 126/7/165 124/7/165
f 117/4/3 125/4/3 126/7/3
f 138/3/1 146/3/1 145/2/1
f 138/10/98 136/10/98 144/10/98
f 129/5/166 137/5/166 135/5/166
f 128/3/3 127/2/3 135/2/3
f 125/4/167 123/4/167 131/4/167
f 124/7/1 132/7/1 131/4/1
f 130/10/168 128/10/168 136/10/168
f 130/3/1 138/3/1 137/2/1
f 140/7/102 142/7/102 141/4/102
f 144/3/103 143/2/103 145/2/103
f 134/7/98 142/7/98 140/7/98
f 133/4/3 141/4/3 142/7/3
f 137/5/104 145/5/104 143/5/104
f 135/2/3 143/2/3 144/3/3
f 133/4/104 131/4/104 139/4/104
f 131/4/1 132/7/1 140/7/1
